Coordinates
version=1
nRows=13
nColumns=36
inDegrees=yes

Units are S.I. units (second, meters, Newtons, ...)
If the header above contains a line with 'inDegrees', this indicates whether rotational values are in degrees (yes) or radians (no).

endheader
time	pelvis_tilt	pelvis_list	pelvis_rotation	pelvis_tx	pelvis_ty	pelvis_tz	hip_flexion_r	hip_adduction_r	hip_rotation_r	knee_angle_r	knee_angle_r_beta	ankle_angle_r	subtalar_angle_r	mtp_angle_r	hip_flexion_l	hip_adduction_l	hip_rotation_l	knee_angle_l	knee_angle_l_beta	ankle_angle_l	subtalar_angle_l	mtp_angle_l	lumbar_extension	lumbar_bending	lumbar_rotation	arm_flex_r	arm_add_r	arm_rot_r	elbow_flex_r	pro_sup_r	arm_flex_l	arm_add_l	arm_rot_l	elbow_flex_l	pro_sup_l
      1.81000000	     -4.09446434	      2.42119501	     84.65393573	     -0.27759240	      0.96392039	     -1.09243499	     18.85594577	     -9.67768500	     -4.13106773	     61.98732243	      1.08188287	     -4.87015423	    -33.09278982	     -7.49999987	     -0.29165370	      7.84812311	    -13.94970780	     12.09897381	      0.21116693	      7.96856098	      4.62293047	     -7.49999987	    -16.17033746	     -4.81756164	     -0.27584801	      5.55881434	     -6.91426040	    -35.29782300	     35.96162421	    103.89364529	      7.59764091	     -5.91783312	    -28.21995903	     33.18053168	     82.98786599
      1.82000000	     -3.73576877	      2.46529436	     85.24473804	     -0.27872707	      0.96433247	     -1.10349367	     19.71815732	     -9.37462352	     -5.16044523	     60.49691517	      1.05587036	     -3.36723862	    -32.92723263	     -7.49999987	     -1.36462594	      7.53512753	    -13.93653856	     11.65194000	      0.20336472	      8.40830506	      6.04633989	     -7.49999987	    -16.45511362	     -4.28697827	     -0.78038108	      5.05923878	     -6.91950491	    -35.84317634	     35.87354280	    103.37439869	      8.29214378	     -6.11236356	    -27.06480378	     33.97637540	     82.63201563
      1.83000000	     -3.53460418	      2.28459192	     85.82175426	     -0.27979424	      0.96424929	     -1.11460433	     20.80879268	     -9.28310984	     -6.24692982	     58.85447627	      1.02720439	     -2.32714165	    -32.65544486	     -7.49999987	     -2.14270640	      7.35516874	    -13.93391855	     11.23662849	      0.19611616	      8.74707431	      7.17901339	     -7.49999987	    -16.41007014	     -3.90345035	     -1.34011491	      4.84106923	     -6.74779680	    -37.32857064	     35.34606803	    106.95177073	      9.07925893	     -6.29954593	    -26.85763455	     34.44282335	     87.86298198
      1.84000000	     -3.35972588	      2.40948399	     86.39954236	     -0.28100685	      0.96433440	     -1.12585381	     21.42983108	     -9.21782700	     -7.27762407	     56.87722183	      0.99269479	     -1.60111377	    -32.36445036	     -7.49999987	     -3.39380208	      7.26367675	    -13.75159858	     10.56702708	      0.18442941	      8.71277828	      7.89425490	     -7.49999987	    -16.69029413	     -3.55793218	     -1.88661353	      4.30614639	     -6.88522167	    -37.28608459	     35.10822105	    104.71484359	      9.83813562	     -6.43974357	    -25.91065181	     35.01969880	     86.19017418
      1.85000000	     -3.22570156	      2.36866454	     86.99454407	     -0.28198841	      0.96384853	     -1.13692684	     22.19085439	     -9.14621275	     -8.33427225	     54.69608781	      0.95462682	     -0.90852996	    -31.85527843	     -7.49999987	     -4.32115041	      7.10342006	    -13.87379064	     10.17245140	      0.17754277	      9.11119169	      9.37336480	     -7.49999987	    -16.82658569	     -3.27332879	     -2.43914536	      4.02635370	     -6.68942526	    -38.69024426	     34.78955684	    107.06943998	     10.45786440	     -6.81787234	    -24.58615480	     35.76385508	     87.08486254
      1.86000000	     -3.20954850	      2.37652315	     87.63894650	     -0.28310602	      0.96317861	     -1.14810023	     22.81104993	     -9.20199054	     -9.39747035	     52.31217094	      0.91301962	     -0.47580876	    -31.33717750	     -7.49999987	     -5.22433484	      7.07299045	    -13.55730215	      9.94712874	      0.17361015	      9.31953617	      9.88641681	     -7.49999987	    -16.92441418	     -3.09939816	     -3.14736827	      3.53977848	     -6.77712062	    -38.40958330	     34.44340519	    104.40004541	     11.23604778	     -7.06512893	    -23.72561659	     36.21658529	     85.31689576
      1.87000000	     -3.04928077	      2.58430137	     88.20413336	     -0.28399545	      0.96265956	     -1.15933721	     23.09441762	     -9.02392131	    -10.37425285	     49.63972562	      0.86637665	     -0.33338454	    -30.68510329	     -7.49999987	     -6.43100994	      6.86972951	    -13.71372947	      9.58178209	      0.16723365	      9.66142841	     11.09823066	     -7.49999987	    -17.32074484	     -2.78958076	     -3.70151084	      3.06038538	     -6.79651663	    -38.55042912	     34.31729418	    102.32925317	     11.98955578	     -7.29506359	    -22.68959990	     36.83041143	     83.87183891
      1.88000000	     -3.33390217	      2.43129663	     88.88484208	     -0.28505136	      0.96131624	     -1.17040929	     23.83061875	     -9.38745364	    -11.34327078	     46.96770513	      0.81974110	     -0.09122443	    -29.98655406	     -7.49999987	     -7.15877623	      7.15468542	    -13.18235580	      9.28313511	      0.16202127	     10.00095073	     11.71456918	     -7.49999987	    -17.30786421	     -2.96844834	     -4.37001926	      2.48536818	     -6.78979577	    -38.57910727	     34.06105958	    100.25131451	     12.75137130	     -7.59778019	    -21.67187382	     37.49393313	     82.46611567
      1.89000000	     -3.19615662	      2.73808914	     89.47417826	     -0.28565933	      0.96060184	     -1.18183017	     23.77669048	     -9.21178839	    -12.48119933	     43.79790725	      0.76441769	      0.71681435	    -28.10796580	     -7.49999987	     -8.35991623	      6.82634308	    -13.97190530	      9.17125394	      0.16006858	     10.53964357	     14.03759112	     -7.49999987	    -17.82964527	     -2.65397973	     -4.93955075	      2.58553931	     -6.15994443	    -41.88839801	     33.87258703	    107.09285461	     13.28946747	     -8.11427536	    -20.48152515	     38.30179562	     85.91961663
      1.90000000	     -3.22771874	      2.91640962	     90.03764485	     -0.28623328	      0.95937692	     -1.19323373	     23.94798579	     -9.20303786	    -13.53783360	     40.76885299	      0.71155072	      0.82535249	    -26.60484897	     -7.49999987	     -9.41698946	      6.73071768	    -13.99332551	      9.09428760	      0.15872526	     11.01005634	     14.90570973	     -7.49999987	    -18.18460926	     -2.57835761	     -5.44906099	      2.16455715	     -6.03377692	    -42.59782058	     33.71161148	    107.06469095	     14.08076927	     -8.42179528	    -19.70853944	     38.82857501	     87.23614898
      1.91000000	     -3.35928693	      3.06300169	     90.74313761	     -0.28690232	      0.95794179	     -1.20464608	     24.02278083	     -9.34181260	    -14.83499942	     37.53142188	      0.65504688	      1.36633193	    -24.52180935	     -7.49999987	    -10.40699748	      6.68297703	    -13.96019535	      9.05622419	      0.15806093	     11.27198576	     15.80534722	     -7.49999987	    -18.48291317	     -2.59071776	     -6.10465186	      1.72382456	     -5.83906273	    -43.28229991	     33.59771092	    107.00350992	     14.84583302	     -8.77558611	    -18.81671276	     39.30935056	     87.45264289
      1.92000000	     -3.45668032	      3.24108421	     91.29360123	     -0.28727933	      0.95646838	     -1.21627167	     24.00506393	     -9.29076577	    -15.96039502	     34.12904076	      0.59566413	      2.07502939	    -22.20542826	     -7.49999987	    -11.45618531	      6.60310632	    -14.16108987	      8.99814742	      0.15704730	     11.60179299	     16.90431854	     -7.49999987	    -18.78987213	     -2.57506001	     -6.70212265	      1.30779134	     -5.72530938	    -43.51209253	     33.43396421	    105.43453613	     15.37255312	     -9.24147972	    -17.53575316	     40.06102757	     85.64426894
      1.93000000	     -3.57639597	      3.28958161	     91.94619214	     -0.28761329	      0.95484343	     -1.22775175	     24.17833961	     -9.28877428	    -17.14716631	     30.90646444	      0.53941956	      2.30873711	    -19.38157630	     -7.49999987	    -12.27960860	      6.50046501	    -14.00435967	      9.07650110	      0.15841483	     11.86294101	     17.26322147	     -7.49999987	    -19.01855460	     -2.57493963	     -7.31527667	      0.90498681	     -5.50130244	    -44.19305658	     33.28732927	    105.74229173	     16.11538254	     -9.49034687	    -16.99596523	     40.53049360	     86.06705647
